# xmcd
#
# Track frame offsets:
# 150
# 16567
# 34393
# 47514
# 63638
# 78238
# 94985
# 112152
# 123758
# 139244
# 157959
# 176626
# 188877
# 203819
# 218208
# 234601
# 249440
# 262551
#
# Disc length: 3759 seconds
#
#
# Revision: 0
# Processed by: cddbd v1.5.1PL2 Copyright (c) Steve Scherf et al.
# Submitted via: FreeRIP 2.942 
#
DISCID=f10ead12
DTITLE=Die Campbells - Jy's die Girl
DYEAR=2003
DGENRE=Folk/Rock
TTITLE0=Jy's Die Girl
TTITLE1=Even The Bad Times Are Good
TTITLE2=Suzette
TTITLE3=Live Is Life
TTITLE4=Don't Forget To Remember
TTITLE5=As Die Antie Haar Boude Swaai
TTITLE6=Is This The Way To Amarillo
TTITLE7=Hillbilly Rock, Hillbilly Roll
TTITLE8=Hush Hush Maria
TTITLE9=Skaapboud Vastrap
TTITLE10=Rhinestone Cowboy
TTITLE11=That'll Be The Day
TTITLE12=Beautiful Sunday
TTITLE13=Stand Up
TTITLE14=Country On Fire
TTITLE15=When You're Gone
TTITLE16=Suzette
TTITLE17=Final Countdown
EXTD=
EXTT0=
EXTT1=
EXTT2=
EXTT3=
EXTT4=
EXTT5=
EXTT6=
EXTT7=
EXTT8=
EXTT9=
EXTT10=
EXTT11=
EXTT12=
EXTT13=
EXTT14=
EXTT15=
EXTT16=
EXTT17=
PLAYORDER=
